<?xml version="1.0" encoding="UTF-8" standalone="no"?>
<svg
   xmlns:dc="http://purl.org/dc/elements/1.1/"
   xmlns:cc="http://creativecommons.org/ns#"
   xmlns:rdf="http://www.w3.org/1999/02/22-rdf-syntax-ns#"
   xmlns:svg="http://www.w3.org/2000/svg"
   xmlns="http://www.w3.org/2000/svg"
   xmlns:sodipodi="http://sodipodi.sourceforge.net/DTD/sodipodi-0.dtd"
   xmlns:inkscape="http://www.inkscape.org/namespaces/inkscape"
   width="260"
   height="360"
   viewBox="0 0 68.791665 95.250003"
   version="1.1"
   id="svg8"
   inkscape:version="1.0 (4035a4f, 2020-05-01)"
   sodipodi:docname="icon.svg">
  <defs
     id="defs2">
    <clipPath
       id="clipPath1930"
       clipPathUnits="userSpaceOnUse">
      <rect
         style="fill:#4d4d4d;fill-opacity:1;stroke-width:1.22618"
         id="rect1932"
         width="56.745411"
         height="59.144962"
         x="-284.07272"
         y="79.499687" />
    </clipPath>
    <clipPath
       clipPathUnits="userSpaceOnUse"
       id="clipPath1313">
      <rect
         y="180.3979"
         x="-771.37"
         height="135.46666"
         width="135.46666"
         id="rect1315"
         style="fill:#000000;fill-opacity:1;stroke:none;stroke-width:1.24917" />
    </clipPath>
  </defs>
  <sodipodi:namedview
     showguides="false"
     inkscape:snap-global="false"
     id="base"
     pagecolor="#ffffff"
     bordercolor="#666666"
     borderopacity="1.0"
     inkscape:pageopacity="0.0"
     inkscape:pageshadow="2"
     inkscape:zoom="0.93184127"
     inkscape:cx="-45.341661"
     inkscape:cy="222.21999"
     inkscape:document-units="px"
     inkscape:current-layer="layer1"
     inkscape:document-rotation="0"
     showgrid="false"
     units="px"
     inkscape:showpageshadow="false"
     borderlayer="true"
     inkscape:window-width="1920"
     inkscape:window-height="1035"
     inkscape:window-x="3"
     inkscape:window-y="23"
     inkscape:window-maximized="0" />
  <metadata
     id="metadata5">
    <rdf:RDF>
      <cc:Work
         rdf:about="">
        <dc:format>image/svg+xml</dc:format>
        <dc:type
           rdf:resource="http://purl.org/dc/dcmitype/StillImage" />
        <dc:title></dc:title>
      </cc:Work>
    </rdf:RDF>
  </metadata>
  <g
     inkscape:label="レイヤー 1"
     inkscape:groupmode="layer"
     id="layer1">
    <g
       transform="matrix(0.99736823,0,0,1,548.77873,984.93883)"
       id="g1338">
      <path
         id="circle1243"
         style="fill:#0044aa;fill-opacity:1;stroke:none;stroke-width:1.16635;stroke-linecap:round;stroke-miterlimit:4;stroke-dasharray:none;stroke-opacity:1"
         d="m -2026.5898,-3717.6035 a 53.018589,53.018589 0 0 0 -20.4161,4.0937 37.019986,37.019986 0 0 1 6.3868,-0.5566 37.019986,37.019986 0 0 1 37.0195,37.0215 37.019986,37.019986 0 0 1 -37.0195,37.0195 37.019986,37.019986 0 0 1 -37.0196,-37.0195 37.019986,37.019986 0 0 1 0.055,-2.0156 53.018589,53.018589 0 0 0 -2.0137,14.4746 53.018589,53.018589 0 0 0 53.0196,53.0195 53.018589,53.018589 0 0 0 53.0176,-53.0195 53.018589,53.018589 0 0 0 -53.0176,-53.0176 53.018589,53.018589 0 0 0 -0.012,0 z"
         transform="scale(0.26458333)" />
      <path
         id="path1245"
         d="m -507.59801,-892.04014 c -0.94835,-3.1747 -1.48697,-5.81214 -1.6718,-8.18621 -0.14394,-1.84888 -0.0517,-4.35379 0.2387,-6.48524 0.21071,-1.54633 0.2119,-1.53185 -0.0621,-0.75686 -0.93105,2.63347 -1.33672,5.70612 -1.20265,9.10917 0.0294,0.74654 0.0787,1.60165 0.10958,1.90026 0.0308,0.29862 0.0511,0.54824 0.0449,0.55472 -0.022,0.0232 -1.71474,-1.27558 -2.48235,-1.90463 -5.32054,-4.36011 -8.55814,-9.00009 -9.5219,-13.64636 -0.41127,-1.98281 -0.44581,-4.47078 -0.0874,-6.29868 l 0.0355,-0.18098 -0.16421,0.21114 c -0.57577,0.74027 -0.97616,2.13866 -1.10547,3.86084 l -0.043,0.5731 -0.37314,-0.99709 c -0.46877,-1.25262 -0.87891,-2.66 -1.10592,-3.79496 -0.66139,-3.30661 -0.26837,-5.78516 1.23167,-7.76747 0.24616,-0.32531 0.51844,-0.65729 0.60506,-0.73773 0.26621,-0.24721 0.17869,-0.24069 -0.35469,0.0264 -0.75102,0.37614 -1.36462,0.52732 -2.26862,0.55895 -0.87614,0.0307 -1.51782,-0.0672 -2.34402,-0.35741 -0.66471,-0.2335 -0.86254,-0.33335 -0.73904,-0.373 0.0499,-0.016 0.33552,-0.10199 0.63475,-0.1911 2.67402,-0.7962 4.60938,-2.93886 4.93365,-5.4621 0.11767,-0.91562 -0.13895,-2.13589 -0.58392,-2.77664 -0.70814,-1.01971 -2.47638,-1.92425 -6.94916,-3.55485 -4.57721,-1.66866 -6.02872,-2.39442 -6.72559,-3.36287 -0.84566,-1.17521 -1.40133,-3.15611 -1.40411,-5.0055 -0.002,-0.87731 -0.014,-0.86241 0.78343,-0.91709 l 0.51292,-0.0351 0.23014,-0.42228 c 0.25047,-0.45955 0.42183,-0.63 0.63547,-0.63208 0.19406,-0.002 0.211,0.0938 0.10535,0.59495 -0.051,0.24192 -0.0774,0.46465 -0.0586,0.49497 0.0475,0.0768 0.6441,0.008 1.12015,-0.12936 0.78619,-0.22666 1.20391,-0.80855 1.20391,-1.67712 0,-0.8815 -0.45092,-1.78541 -1.77875,-3.56573 -0.52826,-0.70828 -0.53557,-0.72314 -0.73301,-1.4918 -0.2338,-0.91019 -0.33429,-1.81898 -0.33494,-3.0291 l -0.001,-1.11033 0.23652,-0.4883 c 0.13008,-0.26857 0.34646,-0.61167 0.48084,-0.76245 0.22181,-0.24889 0.23242,-0.27504 0.11516,-0.28385 -0.19265,-0.0145 -0.38057,-0.13143 -0.46542,-0.28965 -0.0628,-0.11702 -0.0537,-0.22715 0.0541,-0.65584 0.26547,-1.05623 0.60604,-1.56222 1.20102,-1.78437 0.69881,-0.26091 1.575,-0.21724 3.00619,0.14983 0.97778,0.25079 2.23785,0.71332 5.25175,1.92779 2.75446,1.10993 4.18752,1.6467 5.20023,1.94781 0.63777,0.18963 0.81704,0.21837 1.36864,0.21945 0.57941,0.002 0.71648,-0.0229 1.57212,-0.27536 1.76156,-0.5198 2.96321,-0.71253 4.43085,-0.71065 2.53046,0.004 4.83136,0.68508 7.02948,2.08308 1.45121,0.92297 2.66629,1.89099 5.8413,4.65362 l 1.99731,1.73788 0.50075,0.0398 c 1.57454,0.1252 3.00822,0.70461 5.19686,2.10025 1.31973,0.84155 2.57264,1.47559 4.71526,2.38618 3.14553,1.33679 3.9304,1.86007 4.00335,2.66906 0.0215,0.23901 -0.004,0.33025 -0.15436,0.56462 -0.36381,0.56478 -1.43397,1.32074 -2.80224,1.9795 -1.47572,0.7105 -2.81372,1.13944 -4.46228,1.43054 -1.18352,0.20899 -3.2222,0.26286 -4.35255,0.11503 -1.55647,-0.20356 -2.94041,-0.60188 -4.23115,-1.2178 -0.66042,-0.31515 -0.68594,-0.32236 -0.51689,-0.14629 0.24507,0.25526 0.9453,0.72909 1.4534,0.98345 1.85025,0.9263 4.56788,1.27432 7.13334,0.9135 0.24134,-0.0339 0.24313,-0.0327 0.91917,0.64956 1.45279,1.46613 2.54359,3.03827 3.67753,5.30027 0.62311,1.24303 0.85609,1.7602 1.77919,3.94954 0.40571,0.9622 0.90978,2.12336 1.12017,2.58035 1.28607,2.79344 2.64366,4.31106 4.3742,4.88981 0.51314,0.17161 0.50168,0.18017 -0.41509,0.31019 -2.15605,0.30576 -3.52074,-0.12382 -4.39605,-1.38378 -0.14419,-0.20757 -0.19881,-0.25594 -0.17257,-0.15286 0.41579,1.63376 0.56867,2.63217 0.61889,4.04182 0.1678,4.70882 -1.65919,9.68793 -5.3678,14.62898 -0.56583,0.75386 -1.51728,1.92032 -2.04206,2.50351 l -0.18999,0.21113 0.208,-0.33546 c 1.0272,-1.65674 1.86748,-4.06111 2.35996,-6.7528 0.18672,-1.02048 0.35751,-2.32797 0.31713,-2.42787 -0.0168,-0.0416 -0.0328,-0.0168 -0.0353,0.0553 -0.007,0.19255 -0.3965,1.52663 -0.64864,2.22179 -0.98563,2.71739 -2.64066,5.09808 -5.18975,7.46522 -0.46549,0.43225 -1.68964,1.51111 -2.72036,2.39745 -2.27174,1.95357 -3.34197,2.93702 -4.27258,3.92618 -1.30811,1.39042 -2.28966,2.67139 -3.16297,4.12787 -0.25863,0.43132 -0.47553,0.79103 -0.482,0.79933 -0.006,0.008 -0.1922,-0.58891 -0.41274,-1.32716 z m -24.10299,-55.00868 c 0.96422,-0.24444 1.90278,-0.84427 2.18508,-1.39648 0.16969,-0.33192 0.16687,-0.80007 -0.007,-1.15843 -0.20516,-0.42291 -0.58521,-0.77266 -1.8915,-1.74065 -1.36073,-1.00834 -2.38321,-1.96005 -3.14016,-2.92285 -0.84825,-1.07892 -0.77455,-1.01579 -1.07934,-0.92466 -0.14395,0.043 -0.35149,0.16783 -0.4612,0.27732 -0.28498,0.28438 -0.26722,0.47342 0.0876,0.93301 1.33914,1.73426 1.68476,2.26971 1.98724,3.07864 0.32756,0.87602 0.32252,1.43241 -0.0195,2.15929 -0.20435,0.43423 -0.7461,1.00548 -1.11272,1.17332 -0.16267,0.0745 -0.29578,0.15181 -0.29578,0.17185 0,0.0765 0.98629,0.41671 1.20826,0.41671 0.0189,0 0.20796,-0.211 0.42025,-0.46889 0.46562,-0.56564 0.75114,-0.79795 0.98066,-0.79795 0.15377,0 0.17141,0.0204 0.16951,0.19605 -0.002,0.10784 -0.041,0.37251 -0.0886,0.58818 -0.14055,0.63766 -0.14659,0.62413 0.25616,0.57392 0.19075,-0.0238 0.5512,-0.0951 0.80099,-0.15838 z"
         style="fill:#ffffff;stroke-width:0.0603883" />
    </g>
  </g>
</svg>
