<?xml version="1.0" encoding="UTF-8" standalone="no"?>
<svg
   xmlns:dc="http://purl.org/dc/elements/1.1/"
   xmlns:cc="http://creativecommons.org/ns#"
   xmlns:rdf="http://www.w3.org/1999/02/22-rdf-syntax-ns#"
   xmlns:svg="http://www.w3.org/2000/svg"
   xmlns="http://www.w3.org/2000/svg"
   xmlns:sodipodi="http://sodipodi.sourceforge.net/DTD/sodipodi-0.dtd"
   xmlns:inkscape="http://www.inkscape.org/namespaces/inkscape"
   sodipodi:docname="logo.svg.2020_09_01_12_40_04.0.svg"
   inkscape:version="1.0 (4035a4f, 2020-05-01)"
   id="svg8"
   version="1.1"
   viewBox="0 0 211.66666 82.55"
   height="312"
   width="800">
  <defs
     id="defs2">
    <clipPath
       clipPathUnits="userSpaceOnUse"
       id="clipPath1930">
      <rect
         y="79.499687"
         x="-284.07272"
         height="59.144962"
         width="56.745411"
         id="rect1932"
         style="fill:#4d4d4d;fill-opacity:1;stroke-width:1.22618" />
    </clipPath>
    <clipPath
       id="clipPath1313"
       clipPathUnits="userSpaceOnUse">
      <rect
         style="fill:#000000;fill-opacity:1;stroke:none;stroke-width:1.24917"
         id="rect1315"
         width="135.46666"
         height="135.46666"
         x="-771.37"
         y="180.3979" />
    </clipPath>
  </defs>
  <sodipodi:namedview
     inkscape:window-maximized="1"
     inkscape:window-y="23"
     inkscape:window-x="0"
     inkscape:window-height="1035"
     inkscape:window-width="1920"
     borderlayer="true"
     inkscape:showpageshadow="false"
     units="px"
     showgrid="false"
     inkscape:document-rotation="0"
     inkscape:current-layer="layer1"
     inkscape:document-units="px"
     inkscape:cy="-167.0885"
     inkscape:cx="310.86723"
     inkscape:zoom="0.64299904"
     inkscape:pageshadow="2"
     inkscape:pageopacity="0.0"
     borderopacity="1.0"
     bordercolor="#666666"
     pagecolor="#ffffff"
     id="base"
     inkscape:snap-global="false"
     showguides="false" />
  <metadata
     id="metadata5">
    <rdf:RDF>
      <cc:Work
         rdf:about="">
        <dc:format>image/svg+xml</dc:format>
        <dc:type
           rdf:resource="http://purl.org/dc/dcmitype/StillImage" />
        <dc:title />
      </cc:Work>
    </rdf:RDF>
  </metadata>
  <g
     id="layer1"
     inkscape:groupmode="layer"
     inkscape:label="レイヤー 1">
    <g
       inkscape:export-ydpi="96"
       inkscape:export-xdpi="96"
       id="g865">
      <rect
         style="fill:#000000;stroke-width:2.11667;stroke-linejoin:round;stroke-opacity:0.421751"
         id="rect851"
         width="158.75"
         height="74.083336"
         x="-2.4688962"
         y="-132.18848" />
      <g
         transform="matrix(0.72500009,0,0,0.72500009,673.27771,622.48095)"
         id="g1867"
         style="stroke-width:1.37931">
        <path
           id="path1562"
           d="m -859.752,-1030.3444 c 0.11775,1.5303 0.17671,2.1778 0.17671,3.355 0,2.6486 -0.29374,6.9454 -0.64689,10.0649 -0.88289,8.1225 -2.88493,14.7134 -6.23987,21.12896 -3.76697,7.23956 -7.65098,11.65463 -15.0083,17.12845 l 0.29465,0.58801 c 3.88464,-1.76575 5.59128,-2.58903 7.5336,-3.82512 6.88643,-4.1789 12.30053,-10.24128 15.83203,-17.6575 3.00176,-6.2978 4.23833,-11.8313 4.8858,-21.6017 0.4708,6.9452 1.00068,10.4769 2.29555,15.5387 2.00122,7.71039 4.94422,13.9495 8.9466,18.83467 2.70753,3.23725 7.76938,7.65151 8.88765,7.65151 0.29432,0 0.5294,-0.17597 0.76479,-0.76475 1.70687,-3.8258 3.00233,-5.23793 6.00411,-6.23853 l 0.0588,-0.58923 c -4.88525,-1.64808 -7.65177,-3.002 -11.18325,-5.65062 -6.12129,-4.59093 -10.18319,-10.59425 -12.71407,-18.65785 -1.53034,-4.8853 -2.35451,-9.8287 -2.35451,-13.7722 0,-0.4709 5e-5,-1.177 0.0588,-2.0598 1.94231,-0.7063 2.47239,-1.0601 2.47239,-1.531 0,-0.7062 -1.17697,-1.0009 -5.35594,-1.4718 -1.00053,-0.059 -2.64896,-0.2345 -4.70897,-0.4701 z"
           style="font-style:normal;font-variant:normal;font-weight:600;font-stretch:normal;font-size:22.7101px;line-height:1.25;font-family:'Hiragino Mincho ProN';-inkscape-font-specification:'Hiragino Mincho ProN, Semi-Bold';font-variant-ligatures:normal;font-variant-caps:normal;font-variant-numeric:normal;font-variant-east-asian:normal;fill:#800000;fill-opacity:1;stroke:none;stroke-width:2.0296" />
        <path
           d="m -805.89427,-1003.7611 c -0.82404,2.6486 -2.06011,5.00274 -4.47335,8.59306 -2.11889,-2.58979 -3.5312,-4.00218 -6.41523,-6.47426 l -0.52903,0.588 c 2.23655,2.76633 3.58997,4.88571 5.23797,8.1818 -2.64861,3.41382 -4.65004,5.65027 -7.94607,8.71095 l 0.41246,0.52897 c 4.17896,-2.23658 6.12028,-3.47158 9.12211,-5.76705 0.76513,1.94232 1.17781,3.29589 1.6487,5.35586 -3.64924,8.00478 -6.23849,12.00656 -11.7123,18.30441 l 0.47006,0.58932 c 6.12128,-4.17897 8.4758,-6.23977 12.30161,-10.5953 0.0591,1.94232 0.11792,2.8251 0.11792,4.35545 0,5.76807 -0.64801,11.59538 -1.53089,13.5377 -0.41196,0.88288 -0.94093,1.11836 -2.70667,1.11836 -0.82405,0 -5.12158,-0.23585 -7.3582,-0.41254 l -0.11793,0.7661 c 3.23726,0.88286 3.70842,1.05883 4.70904,1.70628 1.05944,0.58858 1.82432,1.88332 1.94198,3.17822 0.11756,1.53028 0.17745,1.64869 0.94287,1.64869 0.52973,0 1.6469,-0.11793 2.35321,-0.29466 2.70747,-0.52971 4.35547,-1.7654 5.47374,-4.11969 1.23606,-2.70748 2.00227,-8.23998 2.00227,-14.1847 0,-9.71161 -1.82485,-17.12777 -5.7684,-23.19015 3.06067,-2.70751 4.29614,-3.94449 7.29792,-7.41711 h 0.29467 c 1.70683,0 2.29552,-0.23507 2.29552,-0.82367 0,-0.58854 -3.9e-4,-0.58794 -8.06396,-3.88404 z m 18.59901,0 c 0.23532,3.0018 0.23584,3.0597 0.23584,3.5894 v 5.35722 h -3.64964 c -3.00176,-1.53034 -3.94258,-2.00116 -7.00326,-3.296 0.11774,1.70683 0.11663,1.7065 0.2343,7.41573 v 32.3725 c -2.06007,0.23533 -2.11844,0.23429 -4.06083,0.23429 2.29555,8.76988 2.29508,8.76983 2.94246,8.76983 0.58864,0 0.88303,-0.58768 1.17727,-2.52999 8.12245,-3.59034 13.59749,-6.35663 17.54098,-8.76983 2.47205,3.82581 5.2969,6.70982 8.5341,8.82873 1.17718,0.7652 2.00128,1.17596 2.2956,1.17596 0.23532,0 0.41135,-0.17596 0.58793,-0.64693 1.11829,-3.17834 2.2959,-4.59122 4.76794,-5.7684 v -0.76471 c -4.76753,-1.00063 -7.5336,-2.11884 -10.8886,-4.35548 -1.58917,-1.00053 -2.64918,-1.88322 -3.76745,-3.11926 3.17833,-1.17718 5.00348,-2.00093 9.30018,-4.23756 0.70628,0.0591 1.41216,0.11663 1.88306,0.11663 0.7063,0 1.17727,-0.29378 1.17727,-0.70584 0,-0.47081 -1.47081,-1.47093 -6.12068,-4.00183 2.11889,-0.23533 2.47103,-0.47143 2.47103,-1.58979 -0.11756,-3.23717 -0.17541,-7.23896 -0.17541,-11.6533 v -4.82691 c 1.70683,-0.88288 2.05984,-1.17644 2.05984,-1.64733 0,-0.35315 -0.23636,-0.64747 -0.82507,-1.11837 -1.88341,-1.41259 -2.47212,-1.88472 -4.53218,-3.23841 -1.4715,1.41259 -1.88219,1.88349 -3.35369,3.35499 h -4.29649 v -5.76844 c 1.94232,-0.5885 2.5889,-0.9422 2.5889,-1.4719 0,-0.2943 -0.29398,-0.5881 -0.82369,-0.7647 -0.70631,-0.2353 -1.41328,-0.2941 -8.29971,-0.9416 z m -3.94295,10.18146 h 15.30297 v 7.12245 h -15.30297 z m 0,8.35864 h 15.30297 v 7.71043 h -15.30297 z m 0,8.94662 h 5.88631 c 1.05943,6.41557 2.4125,10.47593 4.9434,14.77263 -5.53274,1.29484 -5.53247,1.29484 -10.82971,2.17772 z m 7.00465,0 h 8.29832 v 1.11834 c 0,1.00055 0.23559,1.11829 2.35451,1.11829 -1.41259,2.23662 -3.94409,5.35567 -6.00407,7.35681 -2.00123,-2.5897 -3.00076,-4.76704 -4.64876,-9.59344 z"
           style="font-style:normal;font-variant:normal;font-weight:600;font-stretch:normal;font-size:22.7101px;line-height:1.25;font-family:'Hiragino Mincho ProN';-inkscape-font-specification:'Hiragino Mincho ProN, Semi-Bold';font-variant-ligatures:normal;font-variant-caps:normal;font-variant-numeric:normal;font-variant-east-asian:normal;fill:#800000;fill-opacity:1;stroke:none;stroke-width:2.0296"
           id="path1564" />
        <text
           xml:space="preserve"
           style="font-style:normal;font-weight:normal;font-size:33.6469px;line-height:1.25;font-family:sans-serif;fill:#666666;fill-opacity:1;stroke:none;stroke-width:1.16024"
           x="-950.44818"
           y="-932.6413"
           id="text1574"
           transform="scale(0.96963144,1.0313197)"><tspan
             sodipodi:role="line"
             id="tspan1572"
             x="-950.44818"
             y="-932.6413"
             style="font-style:normal;font-variant:normal;font-weight:normal;font-stretch:normal;font-size:33.6469px;font-family:AppleMyungjo;-inkscape-font-specification:'AppleMyungjo, Normal';font-variant-ligatures:normal;font-variant-caps:normal;font-variant-numeric:normal;font-variant-east-asian:normal;fill:#808080;stroke-width:1.16024">WEREWOLF</tspan></text>
        <text
           xml:space="preserve"
           style="font-style:normal;font-weight:normal;font-size:12.9246px;line-height:1.25;font-family:sans-serif;fill:#b3b3b3;fill-opacity:1;stroke:none;stroke-width:0.445676"
           x="-928.84125"
           y="-989.37042"
           id="text1578"><tspan
             sodipodi:role="line"
             id="tspan1576"
             x="-928.84125"
             y="-989.37042"
             style="font-style:normal;font-variant:normal;font-weight:bold;font-stretch:normal;font-family:Athelas;-inkscape-font-specification:'Athelas Bold';fill:#b3b3b3;stroke-width:0.445676">ONE NIGHT</tspan></text>
        <text
           id="text1570"
           y="-949.6463"
           x="-776.95709"
           style="font-style:normal;font-weight:normal;font-size:14.9136px;line-height:1.25;font-family:sans-serif;fill:#4d4d4d;fill-opacity:1;stroke:none;stroke-width:0.514263"
           xml:space="preserve"><tspan
             style="font-style:normal;font-variant:normal;font-weight:600;font-stretch:normal;font-size:14.9136px;font-family:'American Typewriter';-inkscape-font-specification:'American Typewriter, Semi-Bold';font-variant-ligatures:normal;font-variant-caps:normal;font-variant-numeric:normal;font-variant-east-asian:normal;fill:#4d4d4d;fill-opacity:1;stroke-width:0.514263"
             y="-949.6463"
             x="-776.95709"
             id="tspan1568"
             sodipodi:role="line">on Slack</tspan></text>
        <path
           id="path1757"
           style="font-style:normal;font-variant:normal;font-weight:600;font-stretch:normal;font-size:22.7101px;line-height:1.25;font-family:'Hiragino Mincho ProN';-inkscape-font-specification:'Hiragino Mincho ProN, Semi-Bold';font-variant-ligatures:normal;font-variant-caps:normal;font-variant-numeric:normal;font-variant-east-asian:normal;fill:#000000;fill-opacity:1;stroke:none;stroke-width:7.67093"
           d="m -2921.5938,-3618.2988 c -4.1334,0 -7.4036,1.3891 -9.8085,4.1699 -0.5846,0.6485 -1.0947,1.3557 -1.5372,2.1152 1.5096,1.5738 3.0457,3.0865 4.6133,4.5332 0.341,-1.3417 0.8522,-2.4737 1.5469,-3.3789 1.2776,-1.6158 3.0442,-2.4238 5.2988,-2.4238 4.81,0 7.2149,3.3082 7.2149,9.9219 0,2.3976 -0.3803,4.3916 -1.1426,5.9843 0.031,0.02 0.061,0.042 0.092,0.062 1.9021,1.2365 3.4992,2.1742 4.8613,2.9043 1.5107,-2.4433 2.2774,-5.4591 2.2774,-9.0644 0,-4.5093 -1.1854,-8.0976 -3.5528,-10.7656 -2.4425,-2.7056 -5.7297,-4.0586 -9.8633,-4.0586 z m 35.1661,0 c -3.0814,0 -5.6368,0.9014 -7.6661,2.705 -0.2253,-1.1648 -1.0334,-1.748 -2.4238,-1.748 v 0 c -0.3006,0 -0.5635,0.017 -0.789,0.055 -0.1879,0 -0.4318,0.019 -0.7325,0.057 -0.2254,0.038 -0.4713,0.076 -0.7343,0.1133 h -0.6192 l -1.8594,-0.2266 c -0.1504,-0.075 -0.2819,-0.092 -0.3945,-0.055 h -0.3398 c -2.1795,0 -3.2696,0.8251 -3.2696,2.4785 0,1.6534 0.9395,2.4805 2.8184,2.4805 h 0.5645 c 0.1878,-0.037 0.3955,-0.074 0.621,-0.1113 0.1503,-0.038 0.3561,-0.057 0.6192,-0.057 0.2631,-0.037 0.4327,-0.076 0.5078,-0.1133 0.1879,0.075 0.3194,0.3 0.3945,0.6758 0.075,0.3382 0.1496,0.9214 0.2246,1.7481 l 0.1133,1.8594 v 2.2324 c 3.1692,-4.9523 7.1124,-8.1103 12.9961,-10.9121 v -1.1817 c -0.011,0 -0.021,0 -0.031,0 z"
           transform="scale(0.26458333)" />
        <path
           id="path1787"
           style="font-style:normal;font-variant:normal;font-weight:600;font-stretch:normal;font-size:22.7101px;line-height:1.25;font-family:'Hiragino Mincho ProN';-inkscape-font-specification:'Hiragino Mincho ProN, Semi-Bold';font-variant-ligatures:normal;font-variant-caps:normal;font-variant-numeric:normal;font-variant-east-asian:normal;fill:#000000;fill-opacity:1;stroke:none;stroke-width:7.67093"
           d="m -3297.1289,-3729.9004 c -1.9362,2.2527 -3.9588,4.4655 -6.0703,6.6504 2.1427,1.0632 3.9942,2.5954 5.5469,4.6094 0.7563,0.9811 1.4636,2.1167 2.1308,3.373 2.732,-1.849 5.3973,-3.7777 7.9922,-5.789 l -0.5,-8.8438 z m 18.4414,0 v 1.4375 c 0.5272,-0.4765 1.0538,-0.9538 1.5742,-1.4375 z m 97.2891,0 c 0.081,0.099 0.1575,0.2022 0.2382,0.3008 4.2791,5.1163 10.1115,11.0003 15.7618,16.1269 v -6.832 c 0,-3.1562 1.4429,-4.7344 4.33,-4.7344 h 17.4434 c 4.3427,0 7.973,1.1477 10.8984,3.4317 2.9247,-2.3712 6.3458,-4.0781 10.7403,-5.543 l 0.2226,-2.2266 c -0.5262,-0.1775 -0.9845,-0.3475 -1.498,-0.5234 z m 92.6269,0 c -3.183,3.2628 -6.5927,6.5898 -10.5176,10.2344 l 1.5606,2 c 2.8476,-1.5241 5.3499,-2.8971 7.7207,-4.2207 -6e-4,-0.026 -0.01,-0.057 -0.01,-0.082 0,-1.2794 0.4011,-2.0884 1.2032,-2.4296 0.8787,-0.4249 2.3175,-0.639 4.3105,-0.6407 1.3372,-0.7859 2.631,-1.5647 3.8711,-2.33 v -2.5313 z m 28.9277,0 c 0.9323,2.9953 1.7368,6.0808 2.5704,9.6484 0.4833,1.2089 1.3159,3.7797 2.5078,7.752 l -10.9492,38.2051 c 2.7846,-2.7238 5.5657,-5.656 8.4824,-8.8613 l 5.4746,-19.3633 19.625,66.1562 c 0.7408,-7.4441 1.1406,-15.5664 1.1406,-23.9062 0,-4.9647 -0.1375,-9.7581 -0.3926,-14.4141 l -13.2754,-44.4687 -0.3613,-2.4317 c 0,-1.3648 0.481,-2.261 1.4434,-2.6875 0.5923,-0.2908 1.4153,-0.4897 2.4219,-0.6152 -0.6428,-1.6967 -1.3154,-3.3673 -2.0215,-5.0137 z m 45.754,0 v 5.457 c 2.6331,1.048 3.955,3.489 3.955,7.3379 0,2.3032 -0.3193,4.3929 -0.9609,6.2696 l -2.9941,10.6992 v 20.832 l 8.8886,-31.5312 c 1.2832,-4.777 2.7261,-8.1475 4.3301,-10.1094 1.9248,-2.3032 4.7327,-3.7089 8.4219,-4.2207 v -4.7344 z m 81.4218,0.5957 v 0.9629 h -30.6601 c -2.4489,1.2444 -4.7947,2.8039 -7.041,4.6719 h 11.9179 c 3.5869,-2.2685 7.5683,-3.416 11.9551,-3.416 4.744,0 8.8309,1.1432 12.2695,3.416 h 1.5586 v 1.1445 c 8.0206,6.5115 12.0352,19.9995 12.0352,40.4785 0,10.9014 -1.3083,19.7998 -3.9219,26.7012 4.5377,-2.0981 9.6111,-4.628 16.2129,-8.0488 1.1694,-3.5519 1.9873,-7.3262 2.4395,-11.3282 -3.2318,-1.8921 -7.213,-4.1309 -12.3047,-6.9023 8.0084,-0.8894 9.3398,-1.7809 9.3398,-6.0078 -0.1858,-5.1157 -0.3225,-10.8343 -0.4297,-16.8633 -1.9723,-5.0317 -4.7074,-9.5755 -8.207,-13.6328 -4.4492,-5.1582 -9.5053,-8.8791 -15.1641,-11.1758 z m -54.3281,34.7774 c -0.275,1.5231 -0.4955,3.08 -0.6562,4.6718 h 15 c 0.084,-1.5987 0.1942,-3.1603 0.3398,-4.6718 z m -90.7227,14.0644 c -2.6744,4.078 -5.5033,8.0712 -8.582,12.1309 l 2.7403,9.1914 c 3.6469,-2.7382 6.8896,-5.3202 9.9062,-7.8985 z m 142.9883,38.918 c -3.447,2.2531 -7.4871,3.3867 -12.1269,3.3867 -1.8896,0 -3.6701,-0.1887 -5.3535,-0.5449 0.8426,1.5582 1.7122,3.1155 2.6347,4.6816 -0.9648,0.2258 -1.4092,0.3255 -2.289,0.5313 1.6312,0.2058 3.2973,0.3222 5.0078,0.3222 6.4463,0 12.3425,-1.4506 17.6894,-4.3476 -2.0532,-1.3492 -3.8758,-2.6685 -5.5625,-4.0293 z"
           transform="scale(0.26458333)" />
        <path
           id="path1827"
           style="font-style:normal;font-variant:normal;font-weight:bold;font-stretch:normal;font-size:12.9246px;line-height:1.25;font-family:Athelas;-inkscape-font-specification:'Athelas Bold';fill:#000000;fill-opacity:1;stroke:none;stroke-width:1.68444"
           d="m -3245.5566,-3771.3984 c -0.3908,0 -1.1226,0.049 -2.1973,0.1464 -1.0421,0.098 -2.2963,0.1465 -3.7617,0.1465 h -15.0449 c -1.4981,0 -2.7847,-0.049 -3.8594,-0.1465 -0.2925,-0.027 -0.3511,-0.021 -0.5899,-0.041 -1.1929,2.5099 -2.4268,5.0099 -3.7265,7.5 0.1278,0.06 0.2809,0.1265 0.5058,0.211 0.2607,0.065 0.4883,0.098 0.6836,0.098 0.3582,0 0.6022,-0.1463 0.7324,-0.4394 0.3908,-0.8467 0.7668,-1.5642 1.125,-2.1504 0.3909,-0.6188 0.8137,-1.1066 1.2696,-1.4649 0.4885,-0.3908 1.0414,-0.6673 1.6601,-0.83 0.6513,-0.1953 1.4339,-0.293 2.3457,-0.293 h 4.2989 v 22.668 c 2.1356,-2.6467 4.1855,-5.3712 6.1543,-8.1661 v -14.5019 h 4.2988 c 0.8793,0 1.6273,0.098 2.2461,0.293 0.6513,0.1628 1.2062,0.4393 1.6621,0.83 0.062,0.045 0.1182,0.099 0.1777,0.1485 0.7465,-1.3161 1.4729,-2.6483 2.1856,-3.9903 -0.054,-0.01 -0.1066,-0.017 -0.166,-0.017 z m -35.2246,18.5136 c -1.9974,3.3776 -4.0424,6.5921 -6.1543,9.6836 v 0.2344 c 0,0.3256 -0.033,0.602 -0.098,0.8301 -0.065,0.1954 -0.1954,0.3743 -0.3906,0.5371 -0.1926,0.1605 -0.498,0.3048 -0.9121,0.4336 -0.4824,0.683 -0.9779,1.3517 -1.4688,2.0234 0.8875,-0.054 1.7935,-0.1079 2.7715,-0.1621 1.2049,-0.032 2.2802,-0.049 3.2246,-0.049 0.9119,0 1.9526,0.016 3.125,0.049 1.1724,0.065 2.2802,0.1303 3.3223,0.1953 0.033,-0.1301 0.049,-0.2927 0.049,-0.4883 0.032,-0.1953 0.049,-0.3416 0.049,-0.4394 0,-0.4886 -0.1626,-0.7651 -0.4883,-0.8301 -0.6838,-0.097 -1.2368,-0.1952 -1.6601,-0.293 -0.3907,-0.1303 -0.7017,-0.2766 -0.9297,-0.4394 -0.1955,-0.163 -0.3256,-0.3418 -0.3906,-0.5371 -0.033,-0.228 -0.049,-0.5045 -0.049,-0.8301 z"
           transform="scale(0.26458333)" />
      </g>
    </g>
  </g>
</svg>
